<svg xmlns="http://www.w3.org/2000/svg" width="20" height="20" viewBox="0 0 20 20" fill="none">
<!-- <rect width="20" height="20" fill="#3A6A45"/> -->
<path d="M10 1.66669C8.90567 1.66669 7.82204 1.88224 6.81099 2.30102C5.79994 2.71981 4.88129 3.33364 4.10746 4.10746C2.54466 5.67027 1.66669 7.78988 1.66669 10C1.66669 12.2102 2.54466 14.3298 4.10746 15.8926C4.88129 16.6664 5.79994 17.2802 6.81099 17.699C7.82204 18.1178 8.90567 18.3334 10 18.3334C12.2102 18.3334 14.3298 17.4554 15.8926 15.8926C17.4554 14.3298 18.3334 12.2102 18.3334 10C18.3334 8.90567 18.1178 7.82204 17.699 6.81099C17.2802 5.79994 16.6664 4.88129 15.8926 4.10746C15.1188 3.33364 14.2001 2.71981 13.189 2.30102C12.178 1.88224 11.0944 1.66669 10 1.66669ZM13.5 13.5L9.16669 10.8334V5.83335H10.4167V10.1667L14.1667 12.4167L13.5 13.5Z" fill="#D1EC7A"/>
</svg>
