<svg width="25" height="25" viewBox="0 0 25 25" fill="none" xmlns="http://www.w3.org/2000/svg">
<path d="M8.07294 2.60419C8.07294 2.39699 7.99063 2.19827 7.84412 2.05176C7.69761 1.90525 7.49889 1.82294 7.29169 1.82294C7.08449 1.82294 6.88578 1.90525 6.73926 2.05176C6.59275 2.19827 6.51044 2.39699 6.51044 2.60419V4.25002C5.01044 4.36981 4.02711 4.66356 3.30419 5.38752C2.58023 6.11044 2.28648 7.09481 2.16565 8.59377H22.8344C22.7136 7.09377 22.4198 6.11044 21.6959 5.38752C20.9729 4.66356 19.9886 4.36981 18.4896 4.24898V2.60419C18.4896 2.39699 18.4073 2.19827 18.2608 2.05176C18.1143 1.90525 17.9156 1.82294 17.7084 1.82294C17.5012 1.82294 17.3024 1.90525 17.1559 2.05176C17.0094 2.19827 16.9271 2.39699 16.9271 2.60419V4.18023C16.2344 4.16669 15.4573 4.16669 14.5834 4.16669H10.4167C9.54273 4.16669 8.76565 4.16669 8.07294 4.18023V2.60419Z" fill="#3A6A45"/>
<path fill-rule="evenodd" clip-rule="evenodd" d="M2.08331 12.5C2.08331 11.626 2.08331 10.849 2.09685 10.1562H22.9031C22.9166 10.849 22.9166 11.626 22.9166 12.5V14.5833C22.9166 18.5115 22.9166 20.476 21.6958 21.6958C20.475 22.9156 18.5114 22.9167 14.5833 22.9167H10.4166C6.48852 22.9167 4.52394 22.9167 3.30415 21.6958C2.08435 20.475 2.08331 18.5115 2.08331 14.5833V12.5ZM17.7083 14.5833C17.9846 14.5833 18.2495 14.4736 18.4449 14.2782C18.6402 14.0829 18.75 13.8179 18.75 13.5417C18.75 13.2654 18.6402 13.0004 18.4449 12.8051C18.2495 12.6097 17.9846 12.5 17.7083 12.5C17.432 12.5 17.1671 12.6097 16.9717 12.8051C16.7764 13.0004 16.6666 13.2654 16.6666 13.5417C16.6666 13.8179 16.7764 14.0829 16.9717 14.2782C17.1671 14.4736 17.432 14.5833 17.7083 14.5833ZM17.7083 18.75C17.9846 18.75 18.2495 18.6403 18.4449 18.4449C18.6402 18.2496 18.75 17.9846 18.75 17.7083C18.75 17.4321 18.6402 17.1671 18.4449 16.9718C18.2495 16.7764 17.9846 16.6667 17.7083 16.6667C17.432 16.6667 17.1671 16.7764 16.9717 16.9718C16.7764 17.1671 16.6666 17.4321 16.6666 17.7083C16.6666 17.9846 16.7764 18.2496 16.9717 18.4449C17.1671 18.6403 17.432 18.75 17.7083 18.75ZM13.5416 13.5417C13.5416 13.8179 13.4319 14.0829 13.2366 14.2782C13.0412 14.4736 12.7762 14.5833 12.5 14.5833C12.2237 14.5833 11.9588 14.4736 11.7634 14.2782C11.5681 14.0829 11.4583 13.8179 11.4583 13.5417C11.4583 13.2654 11.5681 13.0004 11.7634 12.8051C11.9588 12.6097 12.2237 12.5 12.5 12.5C12.7762 12.5 13.0412 12.6097 13.2366 12.8051C13.4319 13.0004 13.5416 13.2654 13.5416 13.5417ZM13.5416 17.7083C13.5416 17.9846 13.4319 18.2496 13.2366 18.4449C13.0412 18.6403 12.7762 18.75 12.5 18.75C12.2237 18.75 11.9588 18.6403 11.7634 18.4449C11.5681 18.2496 11.4583 17.9846 11.4583 17.7083C11.4583 17.4321 11.5681 17.1671 11.7634 16.9718C11.9588 16.7764 12.2237 16.6667 12.5 16.6667C12.7762 16.6667 13.0412 16.7764 13.2366 16.9718C13.4319 17.1671 13.5416 17.4321 13.5416 17.7083ZM7.29165 14.5833C7.56791 14.5833 7.83287 14.4736 8.02822 14.2782C8.22357 14.0829 8.33331 13.8179 8.33331 13.5417C8.33331 13.2654 8.22357 13.0004 8.02822 12.8051C7.83287 12.6097 7.56791 12.5 7.29165 12.5C7.01538 12.5 6.75043 12.6097 6.55508 12.8051C6.35973 13.0004 6.24998 13.2654 6.24998 13.5417C6.24998 13.8179 6.35973 14.0829 6.55508 14.2782C6.75043 14.4736 7.01538 14.5833 7.29165 14.5833ZM7.29165 18.75C7.56791 18.75 7.83287 18.6403 8.02822 18.4449C8.22357 18.2496 8.33331 17.9846 8.33331 17.7083C8.33331 17.4321 8.22357 17.1671 8.02822 16.9718C7.83287 16.7764 7.56791 16.6667 7.29165 16.6667C7.01538 16.6667 6.75043 16.7764 6.55508 16.9718C6.35973 17.1671 6.24998 17.4321 6.24998 17.7083C6.24998 17.9846 6.35973 18.2496 6.55508 18.4449C6.75043 18.6403 7.01538 18.75 7.29165 18.75Z" fill="#3A6A45"/>
</svg>
