<svg width="40" height="40" viewBox="0 0 40 40" fill="none" xmlns="http://www.w3.org/2000/svg">
<path fill-rule="evenodd" clip-rule="evenodd" d="M2.5 20C2.5 24.6413 4.34374 29.0925 7.62563 32.3744C10.9075 35.6563 15.3587 37.5 20 37.5C24.6413 37.5 29.0925 35.6563 32.3744 32.3744C35.6563 29.0925 37.5 24.6413 37.5 20C37.5 15.3587 35.6563 10.9075 32.3744 7.62563C29.0925 4.34374 24.6413 2.5 20 2.5C15.3587 2.5 10.9075 4.34374 7.62563 7.62563C4.34374 10.9075 2.5 15.3587 2.5 20ZM34.5 20C34.5 23.8456 32.9723 27.5338 30.253 30.253C27.5338 32.9723 23.8456 34.5 20 34.5C16.1544 34.5 12.4662 32.9723 9.74695 30.253C7.02767 27.5338 5.5 23.8456 5.5 20C5.5 16.1544 7.02767 12.4662 9.74695 9.74695C12.4662 7.02767 16.1544 5.5 20 5.5C23.8456 5.5 27.5338 7.02767 30.253 9.74695C32.9723 12.4662 34.5 16.1544 34.5 20Z" fill="#356A4E"/>
<path fill-rule="evenodd" clip-rule="evenodd" d="M12.5 20C12.5 29.044 15.482 36.5 20 36.5C24.518 36.5 27.5 29.044 27.5 20C27.5 10.956 24.518 3.5 20 3.5C15.482 3.5 12.5 10.956 12.5 20ZM24.5 20C24.5 27.524 22.11 33.5 20 33.5C17.89 33.5 15.5 27.524 15.5 20C15.5 12.476 17.89 6.5 20 6.5C22.11 6.5 24.5 12.476 24.5 20Z" fill="#356A4E"/>
<path d="M7.204 10.934L9.216 8.70999C9.416 8.89132 9.63267 9.06933 9.866 9.24399C12.408 11.148 16.466 12.324 20.896 12.324C24.678 12.324 28.202 11.47 30.758 10.008C31.3753 9.65466 31.9213 9.27466 32.396 8.86799L34.344 11.15C33.7227 11.682 33.024 12.1687 32.248 12.61C29.216 14.346 25.18 15.322 20.896 15.322C15.852 15.322 11.166 13.966 8.066 11.644C7.7678 11.4208 7.48016 11.1839 7.204 10.934ZM7.204 29.098L9.216 31.322C9.416 31.1407 9.63267 30.9627 9.866 30.788C12.408 28.884 16.466 27.708 20.896 27.708C24.678 27.708 28.202 28.562 30.758 30.024C31.3753 30.3773 31.9213 30.7573 32.396 31.164L34.344 28.882C33.6913 28.3325 32.9897 27.8438 32.248 27.422C29.216 25.686 25.18 24.71 20.896 24.71C15.852 24.71 11.166 26.066 8.066 28.388C7.7678 28.6112 7.48016 28.8481 7.204 29.098ZM3.5 21.5V18.5H36.5V21.5H3.5Z" fill="#356A4E"/>
</svg>
