<svg width="40" height="40" viewBox="0 0 40 40" fill="none" xmlns="http://www.w3.org/2000/svg">
<path d="M8.05829 22.3917C10.4294 22.3917 12.3516 20.4889 12.3516 18.1417C12.3516 15.7945 10.4294 13.8917 8.05829 13.8917C5.68714 13.8917 3.76495 15.7945 3.76495 18.1417C3.76495 20.4889 5.68714 22.3917 8.05829 22.3917Z" fill="#366A4D"/>
<path d="M7.99998 23.5033C5.39998 23.535 3.33331 25.6833 3.33331 28.2567V29.4533C3.33331 29.73 3.55998 29.9533 3.83998 29.9533H12.2783C12.4117 29.9538 12.5398 29.9015 12.6347 29.8078C12.7296 29.7141 12.7837 29.5867 12.785 29.4533V28.1817C12.785 25.5783 10.6366 23.4717 8.00165 23.5033H7.99998Z" fill="#366A4D"/>
<path d="M18.935 21.7717C21.5013 21.7717 23.5817 19.7122 23.5817 17.1717C23.5817 14.6312 21.5013 12.5717 18.935 12.5717C16.3687 12.5717 14.2883 14.6312 14.2883 17.1717C14.2883 19.7122 16.3687 21.7717 18.935 21.7717Z" fill="#366A4D"/>
<path d="M18.8717 22.9733C16.0583 23.0067 13.8217 25.3317 13.8217 28.1167V29.4533C13.8217 29.5194 13.8347 29.5849 13.8602 29.6459C13.8856 29.7068 13.9229 29.7622 13.9699 29.8087C14.0168 29.8552 14.0725 29.8919 14.1338 29.9167C14.195 29.9416 14.2606 29.954 14.3267 29.9533H23.5417C23.675 29.9538 23.8031 29.9015 23.8981 29.8078C23.993 29.7141 24.047 29.5867 24.0483 29.4533V28.0367C24.0483 25.22 21.725 22.94 18.8717 22.9733ZM30.81 20.5833C33.7483 20.5833 36.1317 18.2233 36.1317 15.3133C36.1317 12.4033 33.7483 10.045 30.81 10.045C27.8717 10.045 25.4883 12.4033 25.4883 15.3133C25.4883 18.2233 27.8717 20.5833 30.81 20.5833ZM30.81 21.9583C27.5767 21.9583 24.9533 24.555 24.9533 27.7583V29.4533C24.9533 29.73 25.18 29.9533 25.46 29.9533H36.16C36.2933 29.9538 36.4215 29.9015 36.5164 29.8078C36.6113 29.7141 36.6653 29.5867 36.6667 29.4533V27.7567C36.6667 24.555 34.045 21.9583 30.81 21.9583Z" fill="#366A4D"/>
</svg>
