<svg width="25" height="25" viewBox="0 0 25 25" fill="none" xmlns="http://www.w3.org/2000/svg">
<path d="M12.5 2.08331C8.12502 2.08331 4.16669 5.43748 4.16669 10.625C4.16669 13.9375 6.71877 17.8333 11.8125 22.3229C12.2084 22.6666 12.8021 22.6666 13.1979 22.3229C18.2813 17.8333 20.8334 13.9375 20.8334 10.625C20.8334 5.43748 16.875 2.08331 12.5 2.08331ZM12.5 12.5C11.3542 12.5 10.4167 11.5625 10.4167 10.4166C10.4167 9.27081 11.3542 8.33331 12.5 8.33331C13.6459 8.33331 14.5834 9.27081 14.5834 10.4166C14.5834 11.5625 13.6459 12.5 12.5 12.5Z" fill="#3A6A45"/>
</svg>
